<?xml version="1.0" encoding="UTF-8"?>
<svg width="18px" height="18px" viewBox="0 0 18 18" version="1.1" xmlns="http://www.w3.org/2000/svg" xmlns:xlink="http://www.w3.org/1999/xlink">
    <title>🎨 Icon Сolor</title>
    <g id="Al-Faisaly" stroke="none" stroke-width="1" fill="none" fill-rule="evenodd">
        <g id="Shabab/Sport/Home" transform="translate(-378.000000, -33.000000)" fill="#FFFFFF">
            <g id="Hero" transform="translate(0.000000, -0.500000)">
                <g id="Icons/Outlined/facebook2" transform="translate(378.000000, 33.500000)">
                    <path d="M15.3044196,16.2 C15.7993514,16.2 16.2,15.7992669 16.2,15.3044196 L16.2,2.69558036 C16.2,2.20064862 15.7992669,1.8 15.3044196,1.8 L2.69558036,1.8 C2.20064862,1.8 1.8,2.20073313 1.8,2.69558036 L1.8,15.3044196 C1.8,15.7993514 2.20073313,16.2 2.69558036,16.2 L9,16.2 L9,10.8 L8.09956055,10.8 C7.60250427,10.8 7.19956055,10.3970563 7.19956055,9.9 C7.19956055,9.40294373 7.60250427,9 8.09956055,9 L9,9 C9,7.29286983 9.19274821,6.21695485 9.99348249,5.32075072 C10.785262,4.43456899 11.7105237,4.05 12.6,4.05 C13.0970563,4.05 13.5,4.45294373 13.5,4.95 C13.5,5.44705627 13.0970563,5.85 12.6,5.85 C12.2065934,5.85 11.7736419,6.02994881 11.3357595,6.52003907 C10.9372307,6.96608359 10.8,7.73210131 10.8,9 L12.6,9 C13.0970563,9 13.5,9.40294373 13.5,9.9 C13.5,10.3970563 13.0970563,10.8 12.6,10.8 L10.8,10.8 L10.8,16.2 L15.3044196,16.2 Z M0,15.3044196 L0,2.69558036 C0,1.20670555 1.20645108,0 2.69558036,0 L15.3044196,0 C16.7932944,0 18,1.20645108 18,2.69558036 L18,15.3044196 C18,16.7932944 16.7935489,18 15.3044196,18 L2.69558036,18 C1.20670555,18 0,16.7935489 0,15.3044196 Z" id="🎨-Icon-Сolor"></path>
                </g>
            </g>
        </g>
    </g>
</svg>