<?xml version="1.0" encoding="UTF-8"?>
<svg width="18px" height="18px" viewBox="0 0 18 18" version="1.1" xmlns="http://www.w3.org/2000/svg" xmlns:xlink="http://www.w3.org/1999/xlink">
    <title>🎨 Icon Сolor</title>
    <g id="Al-Faisaly" stroke="none" stroke-width="1" fill="none" fill-rule="evenodd">
        <g id="Shabab/Sport/Home" transform="translate(-466.000000, -33.000000)" fill="#FFFFFF">
            <g id="Hero" transform="translate(0.000000, -0.500000)">
                <g id="Icons/Outlined/facebook2" transform="translate(466.000000, 33.500000)">
                    <path d="M4.49572805,0 L13.504272,0 C15.987194,0 18,2.01243417 18,4.49572805 L18,13.504272 C18,15.987194 15.9875658,18 13.504272,18 L4.49572805,18 C2.01280601,18 0,15.9875658 0,13.504272 L0,4.49572805 C0,2.01280601 2.01243417,0 4.49572805,0 Z M1.8,13.504272 C1.8,14.9933018 3.00676711,16.2 4.49572805,16.2 L13.504272,16.2 C14.9933018,16.2 16.2,14.9932329 16.2,13.504272 L16.2,4.49572805 C16.2,3.00669816 14.9932329,1.8 13.504272,1.8 L4.49572805,1.8 C3.00669816,1.8 1.8,3.00676711 1.8,4.49572805 L1.8,13.504272 Z M4.5,9 C4.5,6.51471863 6.51471863,4.5 9,4.5 C11.4852814,4.5 13.5,6.51471863 13.5,9 C13.5,11.4852814 11.4852814,13.5 9,13.5 C6.51471863,13.5 4.5,11.4852814 4.5,9 Z M11.7,9 C11.7,7.50883118 10.4911688,6.3 9,6.3 C7.50883118,6.3 6.3,7.50883118 6.3,9 C6.3,10.4911688 7.50883118,11.7 9,11.7 C10.4911688,11.7 11.7,10.4911688 11.7,9 Z M13.5,5.4 C13.0029437,5.4 12.6,4.99705627 12.6,4.5 C12.6,4.00294373 13.0029437,3.6 13.5,3.6 C13.9970563,3.6 14.4,4.00294373 14.4,4.5 C14.4,4.99705627 13.9970563,5.4 13.5,5.4 Z" id="🎨-Icon-Сolor"></path>
                </g>
            </g>
        </g>
    </g>
</svg>