<?xml version="1.0" encoding="UTF-8"?>
<svg width="22px" height="17px" viewBox="0 0 22 17" version="1.1" xmlns="http://www.w3.org/2000/svg" xmlns:xlink="http://www.w3.org/1999/xlink">
    <title>Shape</title>
    <g id="Al-Faisaly" stroke="none" stroke-width="1" fill="none" fill-rule="evenodd">
        <g id="Shabab/Sport/Home" transform="translate(-304.000000, -408.000000)" fill="#071927" fill-rule="nonzero" stroke="#071927" stroke-width="0.5">
            <g id="Hero" transform="translate(0.000000, -0.500000)">
                <g id="Group-5" transform="translate(165.000000, 172.500000)">
                    <g id="Group-11" transform="translate(12.000000, 76.000000)">
                        <g id="Group-2" transform="translate(8.239913, 36.000000)">
                            <g id="Buttons/Small" transform="translate(0.000000, 122.000000)">
                                <g id="football-field" transform="translate(120.000000, 3.000000)">
                                    <path d="M19.609375,0 L0.390625,0 C0.174921875,0 0,0.179118089 0,0.399995733 L0,14.6000043 C0,14.8208819 0.174921875,15 0.390625,15 L19.609375,15 C19.8250781,15 20,14.8208819 20,14.6000043 L20,0.399995733 C20,0.179118089 19.8250781,0 19.609375,0 Z M9.609375,10.1088522 C8.37292969,9.91553423 7.42269531,8.81926593 7.42269531,7.5 C7.42269531,6.18073407 8.37292969,5.08446577 9.609375,4.89114783 L9.609375,10.1088522 Z M10.390625,4.89114783 C11.6270703,5.08446577 12.5773047,6.18073407 12.5773047,7.5 C12.5773047,8.81926593 11.6270703,9.91553423 10.390625,10.1088522 L10.390625,4.89114783 Z M0.78125,4.70514981 L3.10589844,4.70514981 L3.10589844,10.2948502 L0.78125,10.2948502 L0.78125,4.70514981 Z M0.78125,11.0948417 L3.49652344,11.0948417 C3.71222656,11.0948417 3.88714844,10.9157236 3.88714844,10.6948459 L3.88714844,4.30515408 C3.88714844,4.08427643 3.71222656,3.90515834 3.49652344,3.90515834 L0.78125,3.90515834 L0.78125,0.799991467 L9.609375,0.799991467 L9.609375,4.08403644 C7.94082031,4.28283432 6.64144531,5.73893878 6.64144531,7.5 C6.64144531,9.26106122 7.94078125,10.7171657 9.609375,10.9159636 L9.609375,14.2000085 L0.78125,14.2000085 L0.78125,11.0948417 Z M10.390625,14.2000085 L10.390625,10.9159636 C12.0591797,10.7171657 13.3585547,9.26106122 13.3585547,7.5 C13.3585547,5.73893878 12.0591797,4.28283432 10.390625,4.08403644 L10.390625,0.799991467 L19.21875,0.799991467 L19.21875,3.90515834 L16.5034766,3.90515834 C16.2877734,3.90515834 16.1128516,4.08427643 16.1128516,4.30515408 L16.1128516,10.6948459 C16.1128516,10.9157236 16.2877734,11.0948417 16.5034766,11.0948417 L19.21875,11.0948417 L19.21875,14.2000085 L10.390625,14.2000085 Z M19.21875,10.2948502 L16.8941016,10.2948502 L16.8941016,4.70514981 L19.21875,4.70514981 L19.21875,10.2948502 Z" id="Shape"></path>
                                </g>
                            </g>
                        </g>
                    </g>
                </g>
            </g>
        </g>
    </g>
</svg>