<?xml version="1.0" encoding="UTF-8"?>
<svg width="18px" height="16px" viewBox="0 0 18 16" version="1.1" xmlns="http://www.w3.org/2000/svg" xmlns:xlink="http://www.w3.org/1999/xlink">
    <title>🎨 Icon Сolor</title>
    <defs>
        <path d="M16.015628,2.6540635 L16.015628,2.6560635 L16.015628,2.6540635 Z M5.51262802,13.9970635 C5.53662802,13.9970635 5.56262802,13.9980635 5.58662802,14.0000635 C11.281628,13.9630635 14.680628,9.6120635 14.680628,5.4060635 C14.680628,5.0240635 14.876628,4.7770635 15.050628,4.5580635 C15.208628,4.3580635 15.453628,4.0500635 15.671628,3.6060635 C14.878628,3.5980635 14.170628,3.2460635 13.758628,2.7640635 C13.327628,2.3030635 12.708628,2.0210635 12.040628,2.0010635 C11.396628,1.9750635 10.739628,2.2230635 10.251628,2.6860635 C9.60162802,3.3030635 9.32362802,4.2340635 9.52562802,5.1140635 L9.78662802,6.2530635 L8.62062802,6.3350635 C5.60462802,6.5610635 3.51462802,5.2700635 2.07962802,3.9340635 C2.08562802,5.9540635 2.75662802,8.6490635 5.80662802,10.3870635 L6.76462802,10.9330635 L6.12762802,11.8340635 C5.46462802,12.7730635 4.46662802,13.3720635 3.45062802,13.7550635 C4.12162802,13.9150635 4.81162802,13.9970635 5.49962802,13.9970635 L5.51162802,13.9970635 L5.51262802,13.9970635 Z M5.51262802,16.0000635 C5.48662802,16.0000635 5.45862802,15.9990635 5.43262802,15.9970635 C3.82962802,15.9860635 2.22162802,15.6130635 0.777628021,14.9140635 C0.234628021,14.6500635 -0.0723719789,14.0720635 0.0146280211,13.4720635 C0.102628021,12.8650635 0.568628021,12.3890635 1.17262802,12.2910635 C2.21762802,12.1190635 3.08462802,11.8130635 3.71262802,11.4040635 C-0.164371979,8.5050635 -0.0623719789,4.1650635 0.188628021,2.3270635 C0.262628021,1.7890635 0.645628021,1.3400635 1.16362802,1.1830635 C1.68962802,1.0230635 2.23462802,1.1830635 2.59462802,1.5920635 C4.13062802,3.3330635 5.66562802,4.2080635 7.46562802,4.3410635 C7.51762802,3.1760635 8.01362802,2.0530635 8.87462802,1.2350635 C9.75162802,0.402063501 10.898628,-0.0339364993 12.102628,0.00206350067 C13.307628,0.0390635007 14.425628,0.547063501 15.249628,1.4320635 C15.333628,1.5280635 15.647628,1.7020635 16.026628,1.5320635 C16.523628,1.3090635 17.088628,1.3830635 17.500628,1.7270635 C17.911628,2.0680635 18.086628,2.6050635 17.958628,3.1280635 C17.635628,4.4590635 16.997628,5.3170635 16.675628,5.7280635 C16.507628,10.8330635 12.359628,16.0000635 5.51262802,16.0000635 L5.51262802,16.0000635 Z" id="path-1"></path>
    </defs>
    <g id="Al-Faisaly" stroke="none" stroke-width="1" fill="none" fill-rule="evenodd">
        <g id="Shabab/Sport/Home" transform="translate(-422.000000, -34.000000)">
            <g id="Hero" transform="translate(0.000000, -0.500000)">
                <g id="Icons/Outlined/facebook2" transform="translate(421.999972, 34.500236)">
                    <mask id="mask-2" fill="white">
                        <use xlink:href="#path-1"></use>
                    </mask>
                    <use id="🎨-Icon-Сolor" fill="#FFFFFF" xlink:href="#path-1"></use>
                </g>
            </g>
        </g>
    </g>
</svg>