<svg xmlns="http://www.w3.org/2000/svg" width="32.199" height="37.696" viewBox="0 0 32.199 37.696"><g transform="translate(15.475)"><path d="M255.212,0a8.846,8.846,0,0,0-5.727,3.1,7.683,7.683,0,0,0-1.875,5.97,7.466,7.466,0,0,0,5.779-2.952A8.294,8.294,0,0,0,255.212,0Z" transform="translate(-247.522)"/></g><g transform="translate(0 8.823)"><path d="M68.444,123.664a9.542,9.542,0,0,0-7.2-3.824c-3.381,0-4.811,1.619-7.16,1.619-2.422,0-4.262-1.614-7.186-1.614a9.778,9.778,0,0,0-7.869,4.757c-2.726,4.227-2.259,12.174,2.158,18.942,1.581,2.422,3.692,5.146,6.453,5.169,2.457.024,3.15-1.576,6.479-1.593s3.96,1.614,6.413,1.588c2.764-.021,4.99-3.039,6.571-5.461a27.159,27.159,0,0,0,2.434-4.571A8.311,8.311,0,0,1,68.444,123.664Z" transform="translate(-37.336 -119.84)"/></g></svg>