<?xml version="1.0" encoding="UTF-8"?>
<svg width="21px" height="20px" viewBox="0 0 21 20" version="1.1" xmlns="http://www.w3.org/2000/svg" xmlns:xlink="http://www.w3.org/1999/xlink">
    <title>calendar</title>
    <g id="Al-Faisaly" stroke="none" stroke-width="1" fill="none" fill-rule="evenodd">
        <g id="Shabab/Sport/Home" transform="translate(-569.000000, -406.000000)" fill="#071927">
            <g id="Hero" transform="translate(0.000000, -0.500000)">
                <g id="Group-5" transform="translate(165.000000, 172.500000)">
                    <g id="Group-11" transform="translate(12.000000, 76.000000)">
                        <g id="Group-2" transform="translate(8.239913, 36.000000)">
                            <g id="Buttons/Small" transform="translate(0.000000, 122.000000)">
                                <g id="calendar" transform="translate(384.000000, 0.000000)">
                                    <path d="M15.078125,0 C15.5096094,0 15.859375,0.349765625 15.859375,0.78125 L15.859375,0.78125 L15.859375,1.5625 L16.875,1.5625 C18.598125,1.5625 20,2.964375 20,4.6875 L20,4.6875 L20,9.140625 C20,9.57210938 19.6502344,9.921875 19.21875,9.921875 C18.7872656,9.921875 18.4375,9.57210938 18.4375,9.140625 L18.4375,9.140625 L18.4375,4.6875 C18.4375,3.8259375 17.7365625,3.125 16.875,3.125 L16.875,3.125 L15.859375,3.125 L15.859375,3.90625 C15.859375,4.33773438 15.5096094,4.6875 15.078125,4.6875 C14.6466406,4.6875 14.296875,4.33773438 14.296875,3.90625 L14.296875,3.90625 L14.296875,3.125 L10.7421875,3.125 L10.7421875,3.90625 C10.7421875,4.33773438 10.3924219,4.6875 9.9609375,4.6875 C9.52945312,4.6875 9.1796875,4.33773438 9.1796875,3.90625 L9.1796875,3.90625 L9.1796875,3.125 L5.6640625,3.125 L5.6640625,3.90625 C5.6640625,4.33773438 5.31429688,4.6875 4.8828125,4.6875 C4.45132812,4.6875 4.1015625,4.33773438 4.1015625,3.90625 L4.1015625,3.90625 L4.1015625,3.125 L3.125,3.125 C2.2634375,3.125 1.5625,3.8259375 1.5625,4.6875 L1.5625,4.6875 L1.5625,16.875 C1.5625,17.7365625 2.2634375,18.4375 3.125,18.4375 L3.125,18.4375 L9.1015625,18.4375 C9.53304688,18.4375 9.8828125,18.7872656 9.8828125,19.21875 C9.8828125,19.6502344 9.53304688,20 9.1015625,20 L9.1015625,20 L3.125,20 C1.401875,20 0,18.598125 0,16.875 L0,16.875 L0,4.6875 C0,2.964375 1.401875,1.5625 3.125,1.5625 L3.125,1.5625 L4.1015625,1.5625 L4.1015625,0.78125 C4.1015625,0.349765625 4.45132812,0 4.8828125,0 C5.31429688,0 5.6640625,0.349765625 5.6640625,0.78125 L5.6640625,0.78125 L5.6640625,1.5625 L9.1796875,1.5625 L9.1796875,0.78125 C9.1796875,0.349765625 9.52945312,0 9.9609375,0 C10.3924219,0 10.7421875,0.349765625 10.7421875,0.78125 L10.7421875,0.78125 L10.7421875,1.5625 L14.296875,1.5625 L14.296875,0.78125 C14.296875,0.349765625 14.6466406,0 15.078125,0 Z M15.2734375,10.546875 C17.8796875,10.546875 20,12.6671875 20,15.2734375 C20,17.8796875 17.8796875,20 15.2734375,20 C12.6671875,20 10.546875,17.8796875 10.546875,15.2734375 C10.546875,12.6671875 12.6671875,10.546875 15.2734375,10.546875 Z M15.2734375,12.109375 C13.5287891,12.109375 12.109375,13.52875 12.109375,15.2734375 C12.109375,17.018125 13.5287891,18.4375 15.2734375,18.4375 C17.0180859,18.4375 18.4375,17.018125 18.4375,15.2734375 C18.4375,13.52875 17.0180859,12.109375 15.2734375,12.109375 Z M15.2734375,12.890625 C15.7049219,12.890625 16.0546875,13.2403906 16.0546875,13.671875 L16.0546875,13.671875 L16.0546875,14.4921875 L16.40625,14.4921875 C16.8377344,14.4921875 17.1875,14.8419531 17.1875,15.2734375 C17.1875,15.7049219 16.8377344,16.0546875 16.40625,16.0546875 L16.40625,16.0546875 L15.2734375,16.0546875 C14.8419531,16.0546875 14.4921875,15.7049219 14.4921875,15.2734375 L14.4921875,15.2734375 L14.4921875,13.671875 C14.4921875,13.2403906 14.8419531,12.890625 15.2734375,12.890625 Z M4.8828125,14.21875 C5.31428496,14.21875 5.6640625,14.5685275 5.6640625,15 C5.6640625,15.4314725 5.31428496,15.78125 4.8828125,15.78125 C4.45134004,15.78125 4.1015625,15.4314725 4.1015625,15 C4.1015625,14.5685275 4.45134004,14.21875 4.8828125,14.21875 Z M8.28125,14.21875 C8.71272246,14.21875 9.0625,14.5685275 9.0625,15 C9.0625,15.4314725 8.71272246,15.78125 8.28125,15.78125 C7.84977754,15.78125 7.5,15.4314725 7.5,15 C7.5,14.5685275 7.84977754,14.21875 8.28125,14.21875 Z M8.28125,10.8203125 C8.71272246,10.8203125 9.0625,11.17009 9.0625,11.6015625 C9.0625,12.033035 8.71272246,12.3828125 8.28125,12.3828125 C7.84977754,12.3828125 7.5,12.033035 7.5,11.6015625 C7.5,11.17009 7.84977754,10.8203125 8.28125,10.8203125 Z M4.8828125,10.8203125 C5.31428496,10.8203125 5.6640625,11.17009 5.6640625,11.6015625 C5.6640625,12.033035 5.31428496,12.3828125 4.8828125,12.3828125 C4.45134004,12.3828125 4.1015625,12.033035 4.1015625,11.6015625 C4.1015625,11.17009 4.45134004,10.8203125 4.8828125,10.8203125 Z M15.078125,7.421875 C15.5095975,7.421875 15.859375,7.77165254 15.859375,8.203125 C15.859375,8.63459746 15.5095975,8.984375 15.078125,8.984375 C14.6466525,8.984375 14.296875,8.63459746 14.296875,8.203125 C14.296875,7.77165254 14.6466525,7.421875 15.078125,7.421875 Z M11.6796875,7.421875 C12.11116,7.421875 12.4609375,7.77165254 12.4609375,8.203125 C12.4609375,8.63459746 12.11116,8.984375 11.6796875,8.984375 C11.248215,8.984375 10.8984375,8.63459746 10.8984375,8.203125 C10.8984375,7.77165254 11.248215,7.421875 11.6796875,7.421875 Z M4.8828125,7.421875 C5.31428496,7.421875 5.6640625,7.77165254 5.6640625,8.203125 C5.6640625,8.63459746 5.31428496,8.984375 4.8828125,8.984375 C4.45134004,8.984375 4.1015625,8.63459746 4.1015625,8.203125 C4.1015625,7.77165254 4.45134004,7.421875 4.8828125,7.421875 Z M8.28125,7.421875 C8.71272246,7.421875 9.0625,7.77165254 9.0625,8.203125 C9.0625,8.63459746 8.71272246,8.984375 8.28125,8.984375 C7.84977754,8.984375 7.5,8.63459746 7.5,8.203125 C7.5,7.77165254 7.84977754,7.421875 8.28125,7.421875 Z" id="Combined-Shape"></path>
                                </g>
                            </g>
                        </g>
                    </g>
                </g>
            </g>
        </g>
    </g>
</svg>