<?xml version="1.0" encoding="UTF-8"?>
<svg width="104px" height="90px" viewBox="0 0 104 90" version="1.1" xmlns="http://www.w3.org/2000/svg" xmlns:xlink="http://www.w3.org/1999/xlink">
    <title>Group 56 Copy</title>
    <defs>
        <filter color-interpolation-filters="auto" id="filter-1">
            <feColorMatrix in="SourceGraphic" type="matrix" values="0 0 0 0 0.152941 0 0 0 0 0.117647 0 0 0 0 0.113725 0 0 0 1.000000 0"></feColorMatrix>
        </filter>
        <polygon id="path-2" points="0 0 4 0 4 4 0 4"></polygon>
        <polygon id="path-4" points="0 0 4 0 4 4 0 4"></polygon>
        <polygon id="path-6" points="0 0 4 0 4 4 0 4"></polygon>
        <polygon id="path-8" points="0 0 4 0 4 4 0 4"></polygon>
        <polygon id="path-10" points="0 0 4 0 4 4 0 4"></polygon>
    </defs>
    <g id="Page-1" stroke="none" stroke-width="1" fill="none" fill-rule="evenodd">
        <g id="Shabab/Sport/Home" transform="translate(25.000000, -1395.000000)">
            <g id="Group-56-Copy" transform="translate(-215.000000, 779.000000)" filter="url(#filter-1)">
                <g transform="translate(190.000000, 616.000000)">
                    <g id="Group-3">
                        <mask id="mask-3" fill="white">
                            <use xlink:href="#path-2"></use>
                        </mask>
                        <g id="Clip-2"></g>
                        <path d="M4,2 C4,3.10418695 3.10453572,4 2.00077866,4 C0.895074946,4 -0.000389332295,3.10418695 -0.000389332295,2 C-0.000389332295,0.895813048 0.895074946,0 2.00077866,0 C3.10453572,0 4,0.895813048 4,2" id="Fill-1" fill="#8907BD" mask="url(#mask-3)"></path>
                    </g>
                    <path d="M29,2 C29,3.10418695 28.1031128,4 27,4 C25.8949416,4 25,3.10418695 25,2 C25,0.895813048 25.8949416,0 27,0 C28.1031128,0 29,0.895813048 29,2" id="Fill-4" fill="#8907BD"></path>
                    <path d="M54,2 C54,3.10418695 53.1046229,4 52.0009732,4 C50.8953771,4 50,3.10418695 50,2 C50,0.895813048 50.8953771,0 52.0009732,0 C53.1046229,0 54,0.895813048 54,2" id="Fill-6" fill="#8907BD"></path>
                    <path d="M79,2 C79,3.10418695 78.1031128,4 77,4 C75.8949416,4 75,3.10418695 75,2 C75,0.895813048 75.8949416,0 77,0 C78.1031128,0 79,0.895813048 79,2" id="Fill-8" fill="#8907BD"></path>
                    <path d="M104,2 C104,3.10418695 103.104623,4 102.000973,4 C100.895377,4 100,3.10418695 100,2 C100,0.895813048 100.895377,0 102.000973,0 C103.104623,0 104,0.895813048 104,2" id="Fill-10" fill="#8907BD"></path>
                    <g id="Group-14" transform="translate(0.000000, 22.000000)">
                        <mask id="mask-5" fill="white">
                            <use xlink:href="#path-4"></use>
                        </mask>
                        <g id="Clip-13"></g>
                        <path d="M4,2 C4,3.10418695 3.10453572,4 2.00077866,4 C0.895074946,4 -0.000389332295,3.10418695 -0.000389332295,2 C-0.000389332295,0.895813048 0.895074946,0 2.00077866,0 C3.10453572,0 4,0.895813048 4,2" id="Fill-12" fill="#8907BD" mask="url(#mask-5)"></path>
                    </g>
                    <path d="M29,24 C29,25.104187 28.1031128,26 27,26 C25.8949416,26 25,25.104187 25,24 C25,22.895813 25.8949416,22 27,22 C28.1031128,22 29,22.895813 29,24" id="Fill-15" fill="#8907BD"></path>
                    <path d="M54,24 C54,25.104187 53.1046229,26 52.0009732,26 C50.8953771,26 50,25.104187 50,24 C50,22.895813 50.8953771,22 52.0009732,22 C53.1046229,22 54,22.895813 54,24" id="Fill-17" fill="#8907BD"></path>
                    <path d="M79,24 C79,25.104187 78.1031128,26 77,26 C75.8949416,26 75,25.104187 75,24 C75,22.895813 75.8949416,22 77,22 C78.1031128,22 79,22.895813 79,24" id="Fill-19" fill="#8907BD"></path>
                    <path d="M104,24 C104,25.104187 103.104623,26 102.000973,26 C100.895377,26 100,25.104187 100,24 C100,22.895813 100.895377,22 102.000973,22 C103.104623,22 104,22.895813 104,24" id="Fill-21" fill="#8907BD"></path>
                    <g id="Group-25" transform="translate(0.000000, 43.000000)">
                        <mask id="mask-7" fill="white">
                            <use xlink:href="#path-6"></use>
                        </mask>
                        <g id="Clip-24"></g>
                        <path d="M4,1.99902676 C4,3.1026764 3.10453572,4 2.00077866,4 C0.895074946,4 -0.000389332295,3.1026764 -0.000389332295,1.99902676 C-0.000389332295,0.895377129 0.895074946,0 2.00077866,0 C3.10453572,0 4,0.895377129 4,1.99902676" id="Fill-23" fill="#8907BD" mask="url(#mask-7)"></path>
                    </g>
                    <path d="M29,44.9990268 C29,46.1026764 28.1031128,47 27,47 C25.8949416,47 25,46.1026764 25,44.9990268 C25,43.8953771 25.8949416,43 27,43 C28.1031128,43 29,43.8953771 29,44.9990268" id="Fill-26" fill="#8907BD"></path>
                    <path d="M54,44.9990268 C54,46.1026764 53.1046229,47 52.0009732,47 C50.8953771,47 50,46.1026764 50,44.9990268 C50,43.8953771 50.8953771,43 52.0009732,43 C53.1046229,43 54,43.8953771 54,44.9990268" id="Fill-28" fill="#8907BD"></path>
                    <path d="M79,44.9990268 C79,46.1026764 78.1031128,47 77,47 C75.8949416,47 75,46.1026764 75,44.9990268 C75,43.8953771 75.8949416,43 77,43 C78.1031128,43 79,43.8953771 79,44.9990268" id="Fill-30" fill="#8907BD"></path>
                    <path d="M104,44.9990268 C104,46.1026764 103.104623,47 102.000973,47 C100.895377,47 100,46.1026764 100,44.9990268 C100,43.8953771 100.895377,43 102.000973,43 C103.104623,43 104,43.8953771 104,44.9990268" id="Fill-32" fill="#8907BD"></path>
                    <g id="Group-36" transform="translate(0.000000, 65.000000)">
                        <mask id="mask-9" fill="white">
                            <use xlink:href="#path-8"></use>
                        </mask>
                        <g id="Clip-35"></g>
                        <path d="M4,1.99902676 C4,3.10462287 3.10453572,4 2.00077866,4 C0.895074946,4 -0.000389332295,3.10462287 -0.000389332295,1.99902676 C-0.000389332295,0.895377129 0.895074946,0 2.00077866,0 C3.10453572,0 4,0.895377129 4,1.99902676" id="Fill-34" fill="#8907BD" mask="url(#mask-9)"></path>
                    </g>
                    <path d="M29,66.9990268 C29,68.1046229 28.1031128,69 27,69 C25.8949416,69 25,68.1046229 25,66.9990268 C25,65.8953771 25.8949416,65 27,65 C28.1031128,65 29,65.8953771 29,66.9990268" id="Fill-37" fill="#8907BD"></path>
                    <path d="M54,66.9990268 C54,68.1046229 53.1046229,69 52.0009732,69 C50.8953771,69 50,68.1046229 50,66.9990268 C50,65.8953771 50.8953771,65 52.0009732,65 C53.1046229,65 54,65.8953771 54,66.9990268" id="Fill-39" fill="#8907BD"></path>
                    <path d="M79,66.9990268 C79,68.1046229 78.1031128,69 77,69 C75.8949416,69 75,68.1046229 75,66.9990268 C75,65.8953771 75.8949416,65 77,65 C78.1031128,65 79,65.8953771 79,66.9990268" id="Fill-41" fill="#8907BD"></path>
                    <path d="M104,66.9990268 C104,68.1046229 103.104623,69 102.000973,69 C100.895377,69 100,68.1046229 100,66.9990268 C100,65.8953771 100.895377,65 102.000973,65 C103.104623,65 104,65.8953771 104,66.9990268" id="Fill-43" fill="#8907BD"></path>
                    <g id="Group-47" transform="translate(0.000000, 86.000000)">
                        <mask id="mask-11" fill="white">
                            <use xlink:href="#path-10"></use>
                        </mask>
                        <g id="Clip-46"></g>
                        <path d="M4,2.00097324 C4,3.10462287 3.10453572,4 2.00077866,4 C0.895074946,4 -0.000389332296,3.10462287 -0.000389332296,2.00097324 C-0.000389332296,0.897323601 0.895074946,0 2.00077866,0 C3.10453572,0 4,0.897323601 4,2.00097324" id="Fill-45" fill="#8907BD" mask="url(#mask-11)"></path>
                    </g>
                    <path d="M29,88.0009732 C29,89.1046229 28.1031128,90 27,90 C25.8949416,90 25,89.1046229 25,88.0009732 C25,86.8973236 25.8949416,86 27,86 C28.1031128,86 29,86.8973236 29,88.0009732" id="Fill-48" fill="#8907BD"></path>
                    <path d="M54,88.0009732 C54,89.1046229 53.1046229,90 52.0009732,90 C50.8953771,90 50,89.1046229 50,88.0009732 C50,86.8973236 50.8953771,86 52.0009732,86 C53.1046229,86 54,86.8973236 54,88.0009732" id="Fill-50" fill="#8907BD"></path>
                    <path d="M79,88.0009732 C79,89.1046229 78.1031128,90 77,90 C75.8949416,90 75,89.1046229 75,88.0009732 C75,86.8973236 75.8949416,86 77,86 C78.1031128,86 79,86.8973236 79,88.0009732" id="Fill-52" fill="#8907BD"></path>
                    <path d="M104,88.0009732 C104,89.1046229 103.104623,90 102.000973,90 C100.895377,90 100,89.1046229 100,88.0009732 C100,86.8973236 100.895377,86 102.000973,86 C103.104623,86 104,86.8973236 104,88.0009732" id="Fill-54" fill="#8907BD"></path>
                </g>
            </g>
        </g>
    </g>
</svg>